<?xml version="1.0" encoding="UTF-8"?>
<svg version="1.1" xmlns="http://www.w3.org/2000/svg" width="256" height="275">
<path d="M0 0 C0.08165496 2.20770805 0.13948488 4.41630425 0.1875 6.625 C0.22230469 7.85476563 0.25710937 9.08453125 0.29296875 10.3515625 C-0.08065698 15.00444829 -1.28641343 18.34605101 -4.68359375 21.625 C-5.26238281 22.07875 -5.84117187 22.5325 -6.4375 23 C-9.96990272 26.30426838 -10.8220979 29.2717332 -11.9375 33.9375 C-13.4360537 40.09531236 -15.35050703 43.31117756 -20.1953125 47.3515625 C-23.51281089 50.38183159 -24.19169865 53.48053457 -24.8125 57.8125 C-26.00291761 64.13659353 -28.71588897 68.09657414 -33.625 72.1875 C-36.24348389 75.28833618 -36.64464183 77.035529 -37.5 80.9375 C-38.74471337 86.48769732 -39.69163705 89.24164083 -44 93 C-51.79236251 97.63501122 -60.3861803 100.38782989 -68.9375 103.25 C-70.26389379 103.69986707 -71.59006728 104.15038421 -72.91601562 104.6015625 C-77.27270533 106.08161474 -81.63489306 107.54496435 -86 109 C-86.3767096 116.97319976 -85.42166141 123.88391483 -83.3125 131.5625 C-83.06822266 132.52607422 -82.82394531 133.48964844 -82.57226562 134.48242188 C-81.01163445 140.34170297 -78.96074696 145.47229314 -76.00170898 150.76904297 C-74.23058306 154.7136076 -74.542797 158.00330244 -76 162 C-82.25292734 174.17790395 -97.07519044 181.51203607 -108.34472656 188.35986328 C-114.1658023 191.96098849 -119.14334188 196.17230804 -124 201 C-124.86625 201.845625 -125.7325 202.69125 -126.625 203.5625 C-127.800625 204.7690625 -127.800625 204.7690625 -129 206 C-129.60328125 206.59296875 -130.2065625 207.1859375 -130.828125 207.796875 C-134.15491355 211.07287288 -137.36153271 214.36966845 -140.375 217.9375 C-152.62458662 232.01208147 -167.42056946 239.59826874 -186 242 C-189.29260681 242.20864546 -192.57645193 242.27574055 -195.875 242.3125 C-196.73480469 242.34150391 -197.59460938 242.37050781 -198.48046875 242.40039062 C-204.52245819 242.45998536 -208.93940436 241.37295307 -214 238 C-217.26915106 234.73084894 -217.43771646 230.78442241 -218.05078125 226.31640625 C-217.99479181 222.65986544 -217.62057749 221.51617971 -215.25 218.8125 C-213.85832986 217.51434129 -212.43867534 216.24586318 -211 215 C-209.28387702 213.27856395 -207.5758122 211.549065 -205.875 209.8125 C-203.46872173 207.43312899 -201.0594758 205.05780734 -198.6328125 202.69921875 C-192.4207254 196.33044696 -187.58802984 190.12710395 -183.44921875 182.23046875 C-182.94444504 181.28552048 -182.43967133 180.3405722 -181.91960144 179.36698914 C-180.26442469 176.25245773 -178.62954862 173.12801133 -177 170 C-176.43122131 168.91092346 -175.86244263 167.82184692 -175.27642822 166.69976807 C-171.67396549 159.78171117 -168.12583496 152.83776991 -164.61401367 145.87329102 C-163.4008565 143.47541903 -162.18216642 141.08163931 -160.9519043 138.69262695 C-159.14131439 135.17650707 -157.360703 131.64566297 -155.58203125 128.11328125 C-155.03424515 127.05788651 -154.48645905 126.00249176 -153.92207336 124.91511536 C-150.56357499 118.1594594 -149.12134186 112.52932222 -149 105 C-148.96942001 104.20593246 -148.93884003 103.41186493 -148.90733337 102.59373474 C-148.82612144 100.26131511 -148.7851143 97.9312445 -148.75390625 95.59765625 C-148.72097941 93.8652291 -148.68776758 92.13280735 -148.65429688 90.40039062 C-148.60701984 87.73058561 -148.56247505 85.06080428 -148.52319336 82.39086914 C-148.05815243 52.11308478 -148.05815243 52.11308478 -140 44 C-132.52802055 39.12270987 -123.67007027 36.6731427 -115.25 33.9375 C-113.73203331 33.43834589 -112.21421705 32.93873414 -110.6965332 32.4387207 C-105.13562553 30.61160549 -99.56776035 28.80610218 -94 27 C-91.54149331 26.20120449 -89.08299783 25.40237447 -86.62451172 24.60351562 C-79.16253701 22.17977555 -71.6984495 19.76259072 -64.23320007 17.34895706 C-62.88010216 16.91144612 -61.52704365 16.4738133 -60.17402649 16.0360527 C-46.44980055 11.59582949 -32.71995238 7.17618932 -18.92578125 2.95703125 C-17.98671432 2.66873947 -17.0476474 2.38044769 -16.0801239 2.0834198 C-14.78229729 1.68985039 -14.78229729 1.68985039 -13.45825195 1.28833008 C-12.34037041 0.94878044 -12.34037041 0.94878044 -11.1999054 0.60237122 C-4.05888334 -1.35296111 -4.05888334 -1.35296111 0 0 Z M-13.71508789 8.36108398 C-14.66940201 8.65816757 -15.62371613 8.95525116 -16.60694885 9.26133728 C-17.63513229 9.58630692 -18.66331573 9.91127655 -19.72265625 10.24609375 C-20.77907822 10.57666275 -21.83550018 10.90723175 -22.92393494 11.24781799 C-25.15800829 11.94779374 -27.391437 12.64982979 -29.62426758 13.35375977 C-33.05081494 14.43381684 -36.47931184 15.50748845 -39.90820312 16.58007812 C-42.07563821 17.26004264 -44.24295983 17.94036895 -46.41015625 18.62109375 C-47.44036392 18.94403915 -48.47057159 19.26698456 -49.53199768 19.59971619 C-50.48315964 19.89995193 -51.43432159 20.20018768 -52.41430664 20.50952148 C-53.25353165 20.77377426 -54.09275665 21.03802704 -54.95741272 21.31028748 C-57.03171049 21.95853649 -57.03171049 21.95853649 -59 23 C-60.26761762 27.29581527 -61 30.50944298 -61 35 C-52.09318224 33.53957037 -43.72908697 30.80229174 -35.19433594 27.94189453 C-32.74505608 27.12334775 -30.29084356 26.32102332 -27.8359375 25.51953125 C-26.26009308 24.99576423 -24.68456076 24.47105707 -23.109375 23.9453125 C-22.3842572 23.7097464 -21.6591394 23.4741803 -20.91204834 23.23147583 C-15.49130857 21.39184569 -10.70327004 19.21425106 -7.125 14.5625 C-5.91578383 11.80817429 -5.74512052 9.97359394 -6 7 C-8.9824958 7 -10.89173712 7.47559136 -13.71508789 8.36108398 Z M-80.7890625 29.59765625 C-81.64696381 29.86960312 -82.50486511 30.14154999 -83.38876343 30.42173767 C-85.21046841 31.00094385 -87.0310541 31.58368051 -88.85058594 32.16967773 C-91.56438627 33.04299416 -94.28175633 33.90430013 -97 34.76367188 C-105.90139555 37.59545921 -114.74405877 40.55647501 -123.515625 43.76953125 C-124.6866124 44.19698387 -124.6866124 44.19698387 -125.8812561 44.6330719 C-134.42762437 47.46074995 -134.42762437 47.46074995 -140 54 C-141.01850457 59.81835371 -141.08288855 65.49822443 -141.03076172 71.39404297 C-140.99445582 75.64990149 -141.01427316 79.90426788 -141.03515625 84.16015625 C-141.0695831 92.77375346 -141.04746735 101.38650206 -141 110 C-136.50112115 110.26297403 -132.00422868 110.42174285 -127.5 110.5625 C-126.2315625 110.63791016 -124.963125 110.71332031 -123.65625 110.79101562 C-116.5743419 111.03211061 -116.5743419 111.03211061 -110.34375 108.09716797 C-107.32388373 104.80834486 -104.44639174 101.59697649 -104 97 C-104.99 96.01 -104.99 96.01 -106 95 C-107.22976562 95.34933594 -108.45953125 95.69867188 -109.7265625 96.05859375 C-111.35932815 96.51839557 -112.99214328 96.97802171 -114.625 97.4375 C-115.43324219 97.66759766 -116.24148437 97.89769531 -117.07421875 98.13476562 C-121.3668174 99.3387872 -125.57542207 100.37712252 -130 101 C-129.72583008 99.10913086 -129.72583008 99.10913086 -129 97 C-127.42456055 95.98266602 -127.42456055 95.98266602 -125.38671875 95.25390625 C-124.26475098 94.83794189 -124.26475098 94.83794189 -123.12011719 94.41357422 C-122.31735352 94.13271973 -121.51458984 93.85186523 -120.6875 93.5625 C-119.04006989 92.95261837 -117.39293489 92.34193898 -115.74609375 91.73046875 C-114.93640137 91.43575684 -114.12670898 91.14104492 -113.29248047 90.83740234 C-100.85195221 86.89664725 -100.85195221 86.89664725 -92 78 C-91.95977609 75.6670134 -91.95679753 73.33293334 -92 71 C-92.90242432 71.2673999 -93.80484863 71.5347998 -94.73461914 71.81030273 C-98.10865416 72.80753631 -101.48392524 73.80035441 -104.86010742 74.7902832 C-106.31634959 75.21822888 -107.77208943 75.64788802 -109.22729492 76.0793457 C-111.32859113 76.70203197 -113.43166408 77.31837215 -115.53515625 77.93359375 C-116.797229 78.30540771 -118.05930176 78.67722168 -119.35961914 79.06030273 C-122.936768 79.98367782 -126.34039666 80.55260061 -130 81 C-129.953125 79.17578125 -129.953125 79.17578125 -129 77 C-126.54980533 75.84019973 -124.31868109 74.99136162 -121.75 74.1875 C-121.00363281 73.93814697 -120.25726563 73.68879395 -119.48828125 73.43188477 C-116.99764181 72.60346087 -114.50002412 71.79963318 -112 71 C-109.24342791 70.1141713 -106.48799514 69.22536157 -103.73535156 68.32739258 C-101.95925948 67.74957612 -100.18007817 67.18113982 -98.39746094 66.6237793 C-88.51101004 63.61362121 -88.51101004 63.61362121 -80.74169922 57.27685547 C-79.11296645 53.82027162 -78.890581 51.5704541 -80 48 C-81.15935059 48.35304199 -82.31870117 48.70608398 -83.51318359 49.06982422 C-87.85419082 50.39035731 -92.19707602 51.70462037 -96.54052734 53.01708984 C-98.41278256 53.58376554 -100.28453848 54.15209381 -102.15576172 54.72216797 C-104.86032555 55.54579781 -107.56668639 56.36327858 -110.2734375 57.1796875 C-111.50844498 57.55793167 -111.50844498 57.55793167 -112.7684021 57.94381714 C-118.45689613 59.65090237 -124.15905877 60.92916882 -130 62 C-129.6947937 60.09028625 -129.6947937 60.09028625 -129 58 C-126.52887696 56.85464241 -124.28213264 56.01731478 -121.6953125 55.23046875 C-120.57466652 54.86759514 -120.57466652 54.86759514 -119.43138123 54.49739075 C-117.83009537 53.98075437 -116.22640228 53.47153186 -114.62063599 52.96899414 C-111.29872098 51.92875545 -107.98910969 50.85183807 -104.67829895 49.77688599 C-102.25174014 48.98990128 -99.82342112 48.20852258 -97.39501953 47.42724609 C-92.08384111 45.710658 -86.80847352 43.90678694 -81.5625 42 C-80.47702881 41.61944458 -80.47702881 41.61944458 -79.36962891 41.23120117 C-74.57482725 39.47004947 -70.54113858 37.34840164 -67.6875 33 C-66.78328015 30.72201986 -66.78328015 30.72201986 -67 27 C-71.96320655 26.5869171 -76.13344374 28.09209625 -80.7890625 29.59765625 Z M-33.0546875 33.51953125 C-33.91506622 33.77876877 -34.77544495 34.03800629 -35.66189575 34.30509949 C-37.47677912 34.85358647 -39.29047311 35.40602263 -41.10302734 35.9621582 C-43.85654569 36.80683888 -46.61337729 37.63984318 -49.37109375 38.47070312 C-51.1408319 39.00713039 -52.91036991 39.54421846 -54.6796875 40.08203125 C-55.90194534 40.45253349 -55.90194534 40.45253349 -57.14889526 40.83052063 C-66.33376824 42.96018552 -66.33376824 42.96018552 -73.25390625 48.12109375 C-73.35574219 48.88550781 -73.45757812 49.64992188 -73.5625 50.4375 C-73.68753906 51.19933594 -73.81257812 51.96117188 -73.94140625 52.74609375 C-74.00116429 55.04478643 -73.59746221 56.79463173 -73 59 C-67.80370765 57.41433839 -62.61200991 55.81463801 -57.42382812 54.20263672 C-55.66391234 53.65788558 -53.9028664 53.11677009 -52.140625 52.57958984 C-33.43688136 47.706049 -33.43688136 47.706049 -19 36 C-18.21053391 33.31492671 -18.21053391 33.31492671 -18 31 C-23.46063957 30.64672893 -27.90607998 31.92837199 -33.0546875 33.51953125 Z M-39.82861328 54.3293457 C-40.78285187 54.61997391 -41.73709045 54.91060211 -42.72024536 55.21003723 C-43.74326752 55.52873276 -44.76628967 55.84742828 -45.8203125 56.17578125 C-46.87531952 56.5016069 -47.93032654 56.82743256 -49.01730347 57.16313171 C-51.24570084 57.85372774 -53.47314868 58.54739407 -55.69970703 59.24389648 C-59.11520508 60.30944423 -62.53581632 61.35727229 -65.95703125 62.40429688 C-68.12012718 63.07704716 -70.28289919 63.75084004 -72.4453125 64.42578125 C-73.47238312 64.73840408 -74.49945374 65.05102692 -75.55764771 65.37312317 C-76.50558197 65.67320786 -77.45351624 65.97329254 -78.43017578 66.2824707 C-79.26638458 66.54228226 -80.10259338 66.80209381 -80.96414185 67.06977844 C-83.33964066 67.93934144 -83.33964066 67.93934144 -85 71 C-85.45772063 73.73872955 -85.45772063 73.73872955 -85.625 76.6875 C-85.75 78.45833333 -85.875 80.22916667 -86 82 C-76.61962181 79.88717821 -67.56037228 77.0218721 -58.47070312 73.92138672 C-56.11225976 73.12067458 -53.74784019 72.33960971 -51.3828125 71.55859375 C-49.86157479 71.04285789 -48.3407266 70.52597135 -46.8203125 70.0078125 C-45.77485764 69.66691086 -45.77485764 69.66691086 -44.70828247 69.31912231 C-39.3016244 67.43783346 -34.94652314 64.83130638 -31.625 60 C-30.87139976 57.58847922 -30.86047654 55.51142219 -31 53 C-34.51683654 53 -36.55378898 53.323114 -39.82861328 54.3293457 Z M-53.42578125 78.484375 C-54.28374802 78.74124084 -55.14171478 78.99810669 -56.02568054 79.26275635 C-57.85269698 79.81021683 -59.67949807 80.35839639 -61.50610352 80.90722656 C-64.26183118 81.73478393 -67.01855383 82.55895873 -69.77539062 83.3828125 C-73.28221753 84.43185971 -76.78451765 85.49438217 -80.28393555 86.56787109 C-83.14550766 87.44567066 -86.01054664 88.28738688 -88.89770508 89.07666016 C-89.97560303 89.38909668 -91.05350098 89.7015332 -92.1640625 90.0234375 C-93.51878662 90.393479 -93.51878662 90.393479 -94.90087891 90.77099609 C-97.28420039 91.89578346 -97.28420039 91.89578346 -98.30273438 94.86132812 C-99.06829804 97.89799838 -99.52972436 100.90608134 -100 104 C-100.84047555 106.16922737 -101.82611549 107.98762655 -103 110 C-99.92668675 110.36156627 -97.06242953 110.50692093 -94 110 C-91.80204766 107.5423495 -91.80204766 107.5423495 -90.53442383 105.63989258 C-88.47727615 103.44134669 -86.42842024 102.68647731 -83.63671875 101.57421875 C-82.0271228 100.93262817 -82.0271228 100.93262817 -80.38500977 100.27807617 C-73.91776602 97.83624271 -67.38196491 95.59208657 -60.828125 93.39453125 C-53.51268518 90.84575332 -48.26996839 88.66123934 -44.0625 81.875 C-42.65575702 78.99026044 -42.65575702 78.99026044 -44 76 C-47.05028698 76 -50.48506959 77.60112408 -53.42578125 78.484375 Z M-144 120 C-145.65 123.3 -147.3 126.6 -149 130 C-147.4221875 130.99 -147.4221875 130.99 -145.8125 132 C-144.72001953 132.68642578 -144.72001953 132.68642578 -143.60546875 133.38671875 C-141.72282758 134.5524321 -139.82795107 135.69846372 -137.92578125 136.83203125 C-127.72752246 142.95098652 -118.84842276 150.0907953 -110 158 C-109.34 157.67 -108.68 157.34 -108 157 C-107.29478376 154.68336995 -107.29478376 154.68336995 -106.81640625 151.85546875 C-106.50799805 150.24961914 -106.50799805 150.24961914 -106.19335938 148.61132812 C-105.98517578 147.48146484 -105.77699219 146.35160156 -105.5625 145.1875 C-105.15012304 142.99292608 -104.73476324 140.79891054 -104.31640625 138.60546875 C-104.13537354 137.62731201 -103.95434082 136.64915527 -103.76782227 135.64135742 C-102.66131936 130.39382458 -101.30070003 125.20280012 -100 120 C-114.52 120 -129.04 120 -144 120 Z M-93 128 C-96.45941776 140.64932143 -98.94180004 152.92254376 -100 166 C-94.87800272 165.13320046 -92.26904487 161.80469559 -89 158 C-86.01880337 153.71452985 -85.64394667 150.71594602 -86.4140625 145.71875 C-87.63145334 140.07005649 -89.02237978 134.43285855 -91 129 C-91.66 128.67 -92.32 128.34 -93 128 Z M-153 139 C-157.16113952 144.98300123 -160.76137814 151.06140421 -164.0390625 157.56640625 C-164.48720306 158.44473618 -164.93534363 159.3230661 -165.39706421 160.22801208 C-166.81162099 163.00354278 -168.21840518 165.78292739 -169.625 168.5625 C-170.5750143 170.42929432 -171.52553118 172.29583297 -172.4765625 174.16210938 C-174.61336939 178.35928366 -176.74886281 182.55707721 -178.86846924 186.76296997 C-179.63421387 188.27684285 -180.40684433 189.78724911 -181.18572998 191.29440308 C-183.25557096 194.95719664 -183.25557096 194.95719664 -184 199 C-181.78508316 200.86250805 -181.78508316 200.86250805 -179 202 C-174.81778244 200.76633331 -172.64598636 197.39484898 -170.125 194.0625 C-169.65376709 193.45059814 -169.18253418 192.83869629 -168.69702148 192.20825195 C-158.1166268 178.39214714 -147.96972409 164.26072255 -138 150 C-139.47205604 146.16600092 -141.41874611 144.82247836 -144.9375 142.8125 C-146.25041016 142.04873047 -146.25041016 142.04873047 -147.58984375 141.26953125 C-150.03559742 139.89794549 -150.03559742 139.89794549 -153 139 Z M-129 154 C-137.39393502 164.28487643 -145.40243921 174.80447039 -153.20800781 185.54199219 C-155.04287981 188.05881661 -156.89151078 190.56509284 -158.7421875 193.0703125 C-159.93266229 194.6924364 -161.12277959 196.31482273 -162.3125 197.9375 C-162.86993896 198.68878174 -163.42737793 199.44006348 -164.00170898 200.21411133 C-164.51290283 200.91560303 -165.02409668 201.61709473 -165.55078125 202.33984375 C-166.00106689 202.95206787 -166.45135254 203.56429199 -166.9152832 204.19506836 C-168.11537611 206.1919819 -168.74685287 207.67953272 -169 210 C-166.06606343 214.22832035 -163.49290399 216.45099555 -159 219 C-153.26028463 213.50452784 -148.1016707 207.77621293 -143.1328125 201.578125 C-140.29657402 198.14970486 -137.21064675 195.07246702 -134 192 C-133.195625 191.175 -132.39125 190.35 -131.5625 189.5 C-126.01957119 184.09226458 -120.45464184 179.42669077 -113.78515625 175.45703125 C-111.92783772 174.10514517 -111.92783772 174.10514517 -110.8984375 172.19921875 C-111.07157861 168.45004787 -113.97522186 166.43366791 -116.5625 164 C-117.35237305 163.21882812 -117.35237305 163.21882812 -118.15820312 162.421875 C-121.53852555 159.14498962 -125.01017931 156.49588783 -129 154 Z M-195.625 210.0625 C-199.48993578 213.61936119 -203.40110402 217.09437923 -207.40625 220.4921875 C-209.23369102 222.10873629 -209.23369102 222.10873629 -211 225 C-206.62990188 229.16199821 -203.63153512 230.38902336 -197.5625 230.5 C-187.51668326 230.13469757 -177.47973384 228.36472034 -168 225 C-173.90863246 217.69195459 -180.62536641 210.46270525 -189 206 C-192.12808842 206 -193.37434701 207.97559421 -195.625 210.0625 Z " fill="#007504" transform="translate(250,3)"/>
</svg>
